<svg viewBox="0 0 17 31" fill="none" xmlns="http://www.w3.org/2000/svg">
<path d="M16.2265 1.92736L16.2266 1.92649C16.2294 1.88916 16.2234 1.8656 16.2171 1.85056C16.2105 1.83478 16.1992 1.81796 16.1798 1.8009C16.1382 1.76437 16.0612 1.73026 15.9612 1.73026H15.7719L15.638 1.59642C15.5908 1.54923 15.5486 1.51676 15.447 1.47469C11.9593 0.40128 9.58808 0.956957 7.94765 2.4101C6.26878 3.8973 5.26128 6.40313 4.71022 9.41791L4.64408 9.77978L4.27643 9.79246C3.33195 9.82503 2.45209 9.92282 1.81175 10.1848L1.66816 10.2435L1.51848 10.2027C1.42963 10.1785 1.32005 10.1841 1.2382 10.2176C1.16674 10.2468 1.14295 10.2827 1.13355 10.3234L1.13168 10.3315L1.13161 10.3315C0.746545 11.8717 0.489607 13.703 0.457021 15.271C0.457449 15.2894 0.461774 15.2995 0.465151 15.3053C0.469008 15.312 0.477523 15.3231 0.497312 15.335L0.945692 15.604L0.726034 15.8786C1.67903 16.2471 2.66981 16.4252 3.71091 16.517L4.12773 16.5538V16.9723C4.12773 20.265 4.35109 23.4928 4.53081 26.09C4.60762 27.2001 4.67647 28.1949 4.71649 29.0304C4.72543 29.1039 4.74848 29.1402 4.76437 29.1584C4.78188 29.1784 4.81126 29.1997 4.86313 29.2126L5.20929 29.2992V29.6126C5.21272 29.6186 5.21713 29.626 5.22278 29.635C5.22492 29.6384 5.2271 29.6419 5.22935 29.6454C5.4419 29.8166 5.73405 29.9169 6.09501 29.965C6.47994 30.0163 6.89227 30.0026 7.28972 29.986L7.2924 29.9859C8.19622 29.9536 9.10694 29.8572 9.87725 29.5328C9.91636 29.5144 9.93684 29.497 9.94715 29.4861C9.95751 29.4752 9.96309 29.4652 9.96677 29.4547C9.97477 29.4321 9.98075 29.3832 9.95597 29.3089L9.8706 29.0528L10.0537 28.8544C10.3419 28.5422 10.5559 27.9074 10.6709 26.9895C10.7826 26.0978 10.7908 25.0346 10.7481 23.9632C10.7056 22.8946 10.6134 21.8333 10.5291 20.9485C10.5112 20.76 10.4934 20.5779 10.4765 20.4046C10.4159 19.7847 10.3664 19.2772 10.3589 18.9895C10.326 18.3966 10.2933 17.6422 10.2606 16.7597L10.2445 16.3252L10.6777 16.2876C12.1929 16.1558 13.7036 16.0869 15.1588 16.2558M16.2265 1.92736L15.109 16.7101M16.2265 1.92736C16.1994 2.28881 16.1749 2.65207 16.1504 3.0162C16.0848 3.98982 16.0188 4.96963 15.9008 5.93747L15.8896 6.02937L15.915 6.11839C15.9378 6.19793 15.9172 6.29277 15.8611 6.35779C15.8184 6.40721 15.7342 6.46381 15.562 6.43016M16.2265 1.92736L15.562 6.43016M15.1588 16.2558C15.1598 16.2559 15.1608 16.256 15.1618 16.2561L15.109 16.7101M15.1588 16.2558C15.1582 16.2557 15.1575 16.2557 15.1569 16.2556L15.109 16.7101M15.1588 16.2558C15.2137 16.2612 15.2383 16.2487 15.2508 16.2405C15.2681 16.2292 15.2941 16.2036 15.3162 16.1523C15.3656 16.0376 15.3573 15.8861 15.3022 15.7897L15.223 15.6512L15.2473 15.4935C15.3357 14.9188 15.3451 14.3278 15.3548 13.715C15.3589 13.4552 15.3631 13.1915 15.3734 12.9235L15.3736 12.9182L15.3737 12.9182C15.3808 12.7745 15.394 12.6157 15.4071 12.4579C15.4098 12.4255 15.4124 12.3932 15.4151 12.361C15.4308 12.1675 15.4454 11.9725 15.4511 11.7802C15.463 11.3842 15.4349 11.0532 15.3402 10.8165L15.256 10.606L15.3727 10.4117C15.3759 10.4062 15.3822 10.3938 15.388 10.3747C15.3937 10.356 15.3975 10.3359 15.399 10.3168C15.3998 10.3061 15.3998 10.2972 15.3994 10.2904M15.109 16.7101C15.7317 16.7757 15.9612 16.0218 15.699 15.563C15.7924 14.9557 15.8026 14.3152 15.8126 13.6888C15.8167 13.4362 15.8207 13.1859 15.8301 12.941C15.8368 12.8055 15.8492 12.656 15.8623 12.4982C15.9124 11.893 15.9725 11.1668 15.7645 10.6468C15.8628 10.4829 15.8956 10.2207 15.7973 10.0568M15.3994 10.2904C15.4107 10.3038 15.4214 10.3173 15.4317 10.331L15.7973 10.0568M15.3994 10.2904C15.3991 10.2848 15.3985 10.2805 15.398 10.2777C15.3968 10.271 15.3969 10.2777 15.4054 10.292L15.7973 10.0568M15.3994 10.2904C15.154 9.99789 14.6834 9.78426 13.9777 9.66789C13.2569 9.54903 12.3867 9.54688 11.496 9.59546L10.7861 9.63418L11.0456 8.97232C11.3943 8.08306 11.911 7.30736 12.6722 6.82381C13.4434 6.33395 14.4056 6.18187 15.562 6.43016M15.7973 10.0568C15.173 9.22457 13.6054 9.06623 11.9743 9.11731L15.5592 6.4296C15.5601 6.42979 15.5611 6.42997 15.562 6.43016M0.262196 15.7268C0.244817 15.7485 0.230894 15.772 0.22035 15.7966L0.262196 15.7268ZM0.262196 15.7268L0.141009 15.6299C0.175823 15.6668 0.216456 15.6994 0.262196 15.7268Z" stroke="white" stroke-width="0.913972"/>
</svg>
