<svg width="50" height="50" viewBox="0 0 50 50" fill="none" xmlns="http://www.w3.org/2000/svg">
<path d="M47.6713 11.3497C47.1874 11.2893 46.7464 11.6325 46.6861 12.1158L44.8213 27.0333H37.9399L37.0307 21.8781C36.9565 21.4565 36.59 21.1488 36.1616 21.1488H13.9009C13.4734 21.1488 13.1072 21.4552 13.0321 21.8763L12.1112 27.0327H5.19243L3.32766 12.1158C3.26729 11.6322 2.826 11.2893 2.34242 11.3497C1.85884 11.41 1.51561 11.8513 1.57629 12.3349L3.53758 28.0253C3.59274 28.4669 3.96815 28.7985 4.41312 28.7985H5.98644L4.13088 39.9306C4.05089 40.4115 4.37573 40.8659 4.85625 40.9465C5.33738 41.0265 5.79215 40.7017 5.87214 40.2209L7.77613 28.7985H11.7968L9.1095 43.8431C9.04944 44.1781 9.18765 44.5179 9.46376 44.7159L9.4846 44.7309C12.0741 46.5868 15.5269 46.6999 18.2323 45.0168C21.777 46.6885 25.8856 46.6806 29.4242 44.9948C31.0058 45.8213 32.7587 46.2678 34.5432 46.2987C34.606 46.2999 34.6685 46.3003 34.7314 46.3003C36.6154 46.299 38.4704 45.8344 40.1326 44.947L40.4507 44.7769C40.7872 44.5967 40.9698 44.221 40.9036 43.8453L38.251 28.7985H42.2379L44.1416 40.2209C44.1903 40.5347 44.4039 40.7982 44.7009 40.911C44.9981 41.0231 45.3325 40.9677 45.577 40.7645C45.8213 40.5619 45.9383 40.2435 45.8826 39.9306L44.027 28.7985H45.6003C46.0456 28.7985 46.421 28.4669 46.4762 28.0253L48.4374 12.3349C48.4978 11.8513 48.1546 11.4103 47.6713 11.3497ZM30.3267 43.4732V32.1327C30.3267 31.6454 29.9317 31.2501 29.4441 31.2501C28.9569 31.2501 28.5616 31.6454 28.5616 32.1327V43.4484C25.5455 44.8483 22.0657 44.8483 19.0493 43.4484V35.5649C19.0493 35.0777 18.6543 34.6823 18.1667 34.6823C17.6794 34.6823 17.2841 35.0777 17.2841 35.5649V43.5269C15.3473 44.7239 12.9061 44.7447 10.9494 43.5808L14.6397 22.9146H35.4212L39.0545 43.518C36.3056 44.9001 33.0615 44.8835 30.3267 43.4732Z" fill="#706E6E"/>
<path d="M18.6321 20.0116H30.3999C30.8874 20.0116 31.2824 19.6165 31.2824 19.129C31.2778 15.7353 28.7631 12.8688 25.3986 12.4223V11.5979C25.3986 11.1103 25.0035 10.7153 24.516 10.7153C24.0287 10.7153 23.6334 11.1103 23.6334 11.5979V12.4223C20.2695 12.8688 17.7541 15.7353 17.7495 19.129C17.7495 19.6165 18.1448 20.0116 18.6321 20.0116ZM24.516 14.1277C26.9366 14.1314 29.0086 15.8647 29.4388 18.2464H19.5931C20.0237 15.8647 22.0953 14.1314 24.516 14.1277Z" fill="#706E6E"/>
<path d="M27.4583 10.4604C27.9458 10.4604 28.3408 10.065 28.3408 9.57777V7.32228C28.3408 6.83502 27.9458 6.4397 27.4583 6.4397C26.971 6.4397 26.5757 6.83502 26.5757 7.32228V9.57777C26.5757 10.065 26.971 10.4604 27.4583 10.4604Z" fill="#706E6E"/>
<path d="M23.4373 8.7933C23.9248 8.7933 24.3199 8.39798 24.3199 7.91072V4.38039C24.3199 3.89313 23.9248 3.4978 23.4373 3.4978C22.95 3.4978 22.5547 3.89313 22.5547 4.38039V7.91072C22.5547 8.39798 22.95 8.7933 23.4373 8.7933Z" fill="#706E6E"/>
<path d="M19.7112 11.1469C20.1988 11.1469 20.5938 10.7516 20.5938 10.2644V8.40114C20.5938 7.91388 20.1988 7.51855 19.7112 7.51855C19.2239 7.51855 18.8286 7.91388 18.8286 8.40114V10.2644C18.8286 10.7516 19.2239 11.1469 19.7112 11.1469Z" fill="#706E6E"/>
</svg>
